<svg xmlns="http://www.w3.org/2000/svg" width="1600" height="1200" viewBox="0 0 1600 1200">
	<rect fill="#f9d959" width="1600" height="1200" />
	<path fill="#393939" d="m262.4 367.3 97.3 0 0 339.5q0 63.7-38.5 102.6-38.5 38.9-114.1 38.9-67.9 0-105.7-36Q63.6 776.1 63.6 704l0-47.6 88.2 0 0 42.7q0 35.7 12.6 52.9 12.6 17.2 42.7 17.2 33.6 0 44.5-16.4 10.9-16.4 10.9-54.9l0-330.4zm392 137.2q-3.5-35.7-25.9-53.2-22.4-17.5-67.2-17.5-82.6 0-82.6 56.7 0 20.3 17.2 34 17.2 13.7 55 22.8 44.8 10.5 77.7 19.6 32.9 9.1 60.2 21 15.4 6.3 29.1 15.8 13.7 9.5 23.1 23.5 9.5 14 15.1 33.6 5.6 19.6 5.6 47.6 0 33.6-14 59.5-14 25.9-37.8 43.8-23.8 17.9-56 27.3-32.2 9.5-67.9 9.5-101.5 0-152.6-39.2-51.1-39.2-53.9-116.2l93.8 0q0.7 35.7 29.1 56.4 28.4 20.7 71.1 20.7 46.2 0 70-16.8 23.8-16.8 23.8-45.5 0-11.2-2.8-20.6-2.8-9.4-10.8-17.1-8-7.7-22-13.6-14-5.9-36.4-10.8-53.2-11.2-92-22.7-38.8-11.5-64-28.7-25.2-17.1-37.1-41.6-11.9-24.5-11.9-62.3 0-28.7 10.5-53.9 10.5-25.2 32.2-43.7 21.7-18.5 53.6-29.4 31.9-10.8 75.3-10.8 42 0 75.6 10.9 33.6 10.9 57.8 30.8 24.2 20 37.5 48.3 13.3 28.4 14.7 62.7l-92.4 0zm487.2 327.6 0-318.5-86.8 318.5-96.6 0-86.1-317.1 0 317.1-90.3 0 0-464.8 142.8 0 84 340.9 84-340.9 140 0 0 464.8-91 0zm174.3-79.1q63.7 0 92.4-39.5 28.7-39.5 28.7-118.6 0-39.2-7-67.2-7-28-22.7-45.8-15.7-17.8-40.2-25.9-24.5-8-59.5-8l-72.1 0 0 305.2 80.5 0zm-175 79.1 0-464.8 179.9 0q46.9 0 86.8 15.8 39.9 15.8 68.3 45.2 28.4 29.4 44.5 71.4 16.1 42 16.1 95.2 0 53.2-14.3 97-14.3 43.8-40.9 74.9-26.6 31.2-63.7 48.3-37.1 17.2-81.9 17.2l-194.6 0z" />
</svg>